<?xml version="1.0" encoding="utf-8"?>
<!-- Generator: Adobe Illustrator 26.0.0, SVG Export Plug-In . SVG Version: 6.00 Build 0)  -->
<svg version="1.1" id="Capa_1" xmlns="http://www.w3.org/2000/svg" xmlns:xlink="http://www.w3.org/1999/xlink" x="0px" y="0px"
	 viewBox="0 0 48 48" style="enable-background:new 0 0 48 48;" xml:space="preserve">
<style type="text/css">
	.st0{fill:#FFD05A;}
</style>
<path class="st0" d="M17.4,31.8l18.4-5.1c0.6-0.2,1-0.4,1.2-0.8c0.3-0.4,0.3-0.8,0.2-1.4s-0.5-1-0.9-1.2s-0.9-0.3-1.4-0.1l-5.2,1.3
	l-8.3-8.1L18.8,17l5.1,9.1l-5.6,1.5l-2.6-2.1L14.4,26L17.4,31.8z M41,40H7c-0.8,0-1.5-0.3-2.1-0.9C4.3,38.5,4,37.8,4,37v-7.6
	c1.2-0.3,2.3-0.9,3.1-1.9c0.8-1,1.2-2.1,1.2-3.5c0-1.3-0.4-2.5-1.2-3.5c-0.8-1-1.8-1.6-3.1-1.9V11c0-0.8,0.3-1.5,0.9-2.1
	C5.5,8.3,6.2,8,7,8h34c0.8,0,1.5,0.3,2.1,0.9C43.7,9.5,44,10.2,44,11v26c0,0.8-0.3,1.5-0.9,2.1C42.5,39.7,41.8,40,41,40z M41,37V11
	H7v5.4c1.3,0.9,2.3,2,3.1,3.2c0.8,1.3,1.2,2.7,1.2,4.3s-0.4,3-1.2,4.3c-0.8,1.3-1.8,2.4-3.1,3.2V37H41z"/>
</svg>
