<?xml version="1.0" encoding="utf-8"?>
<!-- Generator: Adobe Illustrator 26.0.0, SVG Export Plug-In . SVG Version: 6.00 Build 0)  -->
<svg version="1.1" id="Capa_1" xmlns="http://www.w3.org/2000/svg" xmlns:xlink="http://www.w3.org/1999/xlink" x="0px" y="0px"
	 viewBox="0 0 48 34.9" style="enable-background:new 0 0 48 34.9;" xml:space="preserve">
<style type="text/css">
	.st0{fill:#FFFFFF;}
</style>
<path class="st0" d="M7,33.8c-0.8,0-1.5-0.3-2.1-0.9C4.3,32.3,4,31.6,4,30.8v-26C4,4,4.3,3.3,4.9,2.7S6.2,1.8,7,1.8h34
	c0.8,0,1.5,0.3,2.1,0.9C43.7,3.3,44,4,44,4.8v26c0,0.8-0.3,1.5-0.9,2.1c-0.6,0.6-1.3,0.9-2.1,0.9H7z M24,18.7L7,7.6v23.3h34V7.6
	L24,18.7z M24,15.7L40.8,4.8H7.2L24,15.7z M7,7.6V4.8v26V7.6z"/>
</svg>
