<?xml version="1.0" encoding="utf-8"?>
<!-- Generator: Adobe Illustrator 26.0.0, SVG Export Plug-In . SVG Version: 6.00 Build 0)  -->
<svg 
	version="1.1" 
	id="Capa_1" 
	xmlns="http://www.w3.org/2000/svg" 
	xmlns:xlink="http://www.w3.org/1999/xlink" 
	x="0px" 
	y="0px"
	viewBox="0 0 48 48" 
	style="enable-background:new 0 0 48 48;" 
	xml:space="preserve"
	stroke='#ffd05a'
	stroke-width='1'
	>
	<style 
		type="text/css">
		.st0{fill:#FFD05A;}
	</style>
	<path 
		class="st0" 
		d="M24,44c-5.4-4.6-9.4-8.8-12-12.7s-4-7.5-4-10.9c0-5,1.6-9,4.8-11.9S19.8,4,24,4c0.6,0,1.1,0,1.6,0.1
		s1,0.1,1.6,0.2v3.1c-0.5-0.1-1-0.2-1.6-0.3C25.1,7,24.6,7,24,7c-3.6,0-6.7,1.3-9.2,3.8c-2.5,2.5-3.8,5.7-3.8,9.6
		c0,2.5,1.1,5.4,3.2,8.7S19.7,36,24,40c4.4-4,7.7-7.7,9.8-11s3.2-6.2,3.2-8.7c0-0.3,0-0.5,0-0.8c0-0.3,0-0.5-0.1-0.8h3
		c0,0.3,0,0.5,0,0.8v0.8c0,3.3-1.3,7-4,10.9C33.4,35.2,29.4,39.4,24,44z M24,23.5c1,0,1.8-0.3,2.5-1c0.7-0.7,1-1.5,1-2.5
		c0-1-0.3-1.8-1-2.5c-0.7-0.7-1.5-1-2.5-1s-1.8,0.3-2.5,1c-0.7,0.7-1,1.5-1,2.5c0,1,0.3,1.8,1,2.5S23,23.5,24,23.5z M36.6,15.8h3V9.4
		H46v-3h-6.4V0h-3v6.4h-6.4v3h6.4V15.8z"
	/>
</svg>
