<?xml version="1.0" encoding="utf-8"?>
<!-- Generator: Adobe Illustrator 26.0.0, SVG Export Plug-In . SVG Version: 6.00 Build 0)  -->
<svg version="1.1" id="Capa_1" xmlns="http://www.w3.org/2000/svg" xmlns:xlink="http://www.w3.org/1999/xlink" x="0px" y="0px"
	 viewBox="0 0 225 225" style="enable-background:new 0 0 225 225;" xml:space="preserve">
<style type="text/css">
	.st0{fill:#FFFFFF;}
</style>
<g transform="translate(0.000000,225.000000) scale(0.100000,-0.100000)">
	<path class="st0" d="M947.1,1997.1c-289.3-62.4-544.2-286-659.3-577.1c-41.1-101.9-44.4-134.8-44.4-318.9
		c-1.6-194,1.6-213.7,52.6-340.3L350.4,626l-64.1-231.9C232,201.7,225.4,164,248.4,170.6c14.8,4.9,125,34.6,245,67.4L712,295.5
		l67.4-34.6c83.8-42.8,258.1-80.5,376.5-80.5c116.7,0,322.2,52.6,430.7,110.2c47.7,24.7,141.4,100.3,208.8,169.3
		c185.7,185.7,269.6,384.7,269.6,641.2c0,258.1-82.2,455.4-269.6,641.2c-143.1,143.1-241.7,200.6-420.9,246.6
		C1229.9,2026.6,1091.8,2028.2,947.1,1997.1z M1269.3,1855.6c373.2-59.2,641.2-374.8,641.2-754.6c0-527.7-511.3-894.4-1009.5-723.3
		c-49.3,16.5-106.9,41.1-128.3,55.9c-36.2,24.7-51,23-182.5-13.2c-78.9-21.4-143.1-32.9-143.1-24.7c0,8.2,14.8,70.7,34.6,138.1
		L514.6,657l-49.2,103.7c-245,499.7,101.9,1080.1,664.2,1111.4C1147.6,1872.1,1210.2,1865.5,1269.3,1855.6z"/>
	<path class="st0" d="M792.6,1540c-110.2-55.9-148-225.2-80.5-373.2c47.7-106.9,197.3-294.2,289.3-363.4
		c164.4-125,351.8-189,458.7-159.5c87.1,23,154.6,95.3,154.6,164.4c0,49.3-8.2,59.2-103.6,108.5c-55.9,29.6-108.5,52.6-118.4,52.6
		c-8.2,0-42.8-28-77.2-60.8l-62.4-60.8l-62.4,31.3c-70.7,37.8-231.8,194-264.7,258.1c-21.4,41.1-19.7,47.7,21.4,95.3
		c23,28,42.8,62.4,42.8,73.9c0,24.7-65.7,208.8-80.5,223.6C886.3,1554.8,830.4,1559.8,792.6,1540z"/>
</g>
</svg>
