<?xml version="1.0" encoding="utf-8"?>
<!-- Generator: Adobe Illustrator 26.0.0, SVG Export Plug-In . SVG Version: 6.00 Build 0)  -->
<svg version="1.1" id="Capa_1" xmlns="http://www.w3.org/2000/svg" xmlns:xlink="http://www.w3.org/1999/xlink" x="0px" y="0px"
	 viewBox="0 0 48 48" style="enable-background:new 0 0 48 48;" xml:space="preserve">
<style type="text/css">
	.st0{fill:#FFD05A;}
</style>
<path class="st0" d="M24,16.5l-6.3-6.3L24,3.9l6.3,6.3L24,16.5z M2,40v-8c0-1,0.3-1.8,1-2.5s1.5-1,2.5-1h7.1c0.6,0,1.1,0.1,1.6,0.4
	s1,0.7,1.3,1.2c1,1.4,2.2,2.5,3.7,3.2c1.5,0.8,3.1,1.2,4.8,1.2c1.7,0,3.3-0.4,4.8-1.2c1.5-0.8,2.8-1.8,3.7-3.2
	c0.4-0.5,0.8-0.9,1.3-1.2s1-0.4,1.6-0.4h7c1,0,1.8,0.3,2.5,1s1,1.5,1,2.5v8H33v-6c-1.2,1.1-2.6,2-4.1,2.5c-1.5,0.6-3.2,0.9-4.9,0.9
	c-1.7,0-3.3-0.3-4.9-0.9C17.6,36,16.2,35.2,15,34v6H2z M8,25c-1.5,0-2.8-0.5-3.9-1.6C3,22.3,2.5,21,2.5,19.5c0-1.5,0.5-2.8,1.6-3.9
	S6.5,14,8,14c1.5,0,2.8,0.5,3.9,1.6s1.6,2.4,1.6,3.9c0,1.5-0.5,2.8-1.6,3.9C10.8,24.5,9.5,25,8,25z M40,25c-1.5,0-2.8-0.5-3.9-1.6
	c-1.1-1.1-1.6-2.4-1.6-3.9c0-1.5,0.5-2.8,1.6-3.9c1.1-1.1,2.4-1.6,3.9-1.6c1.5,0,2.8,0.5,3.9,1.6s1.6,2.4,1.6,3.9
	c0,1.5-0.5,2.8-1.6,3.9C42.8,24.5,41.5,25,40,25z"/>
</svg>
