<?xml version="1.0" encoding="utf-8"?>
<!-- Generator: Adobe Illustrator 26.0.0, SVG Export Plug-In . SVG Version: 6.00 Build 0)  -->
<svg version="1.1" id="Capa_1" xmlns="http://www.w3.org/2000/svg" xmlns:xlink="http://www.w3.org/1999/xlink" x="0px" y="0px"
	 viewBox="0 0 48 48" style="enable-background:new 0 0 48 48;" xml:space="preserve">
<style type="text/css">
	.st0{fill:#FFD05A;}
</style>
<path class="st0" d="M18,34h12v-2l-2-1c1.1,0,2-0.4,2.8-1.2S32,28.1,32,27v-9c0-1.4-0.6-2.5-1.9-3.1C28.9,14.3,26.9,14,24,14
	c-2.8,0-4.8,0.3-6.1,1C16.6,15.6,16,16.6,16,18v9c0,1.1,0.4,2,1.2,2.8S18.9,31,20,31l-2,1V34z M20.5,29c-0.4,0-0.8-0.1-1.1-0.4
	S19,27.9,19,27.5s0.1-0.8,0.4-1.1s0.6-0.4,1.1-0.4s0.8,0.1,1.1,0.4s0.4,0.6,0.4,1.1s-0.1,0.8-0.4,1.1S20.9,29,20.5,29z M27.5,29
	c-0.4,0-0.8-0.1-1.1-0.4c-0.3-0.3-0.4-0.6-0.4-1.1s0.1-0.8,0.4-1.1c0.3-0.3,0.6-0.4,1.1-0.4s0.8,0.1,1.1,0.4s0.4,0.6,0.4,1.1
	s-0.1,0.8-0.4,1.1S27.9,29,27.5,29z M19,24v-6h10v6H19z M7,40c-0.8,0-1.5-0.3-2.1-0.9C4.3,38.5,4,37.8,4,37v-6.6
	c0-0.3,0.1-0.6,0.3-0.9C4.5,29.3,4.7,29.1,5,29c1-0.4,1.8-1,2.4-2s0.9-2,0.9-3S8,22,7.4,21S6,19.4,5,19c-0.3-0.1-0.5-0.3-0.7-0.5
	C4.1,18.2,4,17.9,4,17.6V11c0-0.8,0.3-1.5,0.9-2.1C5.5,8.3,6.2,8,7,8h34c0.8,0,1.5,0.3,2.1,0.9C43.7,9.5,44,10.2,44,11v6.6
	c0,0.3-0.1,0.6-0.3,0.9c-0.2,0.2-0.4,0.4-0.7,0.5c-1,0.4-1.8,1-2.4,2s-0.9,2-0.9,3s0.3,2,0.9,3s1.4,1.6,2.4,2
	c0.3,0.1,0.5,0.3,0.7,0.5c0.2,0.2,0.3,0.5,0.3,0.9V37c0,0.8-0.3,1.5-0.9,2.1C42.5,39.7,41.8,40,41,40H7z M7,37h34v-5.5
	c-1.3-0.9-2.3-1.9-3.1-3.2c-0.8-1.3-1.2-2.7-1.2-4.3s0.4-3,1.2-4.3c0.8-1.3,1.8-2.4,3.1-3.2V11H7v5.4c1.3,0.9,2.3,2,3.1,3.2
	c0.8,1.3,1.2,2.7,1.2,4.3s-0.4,3-1.2,4.3c-0.8,1.3-1.8,2.4-3.1,3.2V37z"/>
</svg>
